<svg width="24" height="24" viewBox="0 0 24 24" fill="none" xmlns="http://www.w3.org/2000/svg">
<path d="M20 12C20 7.58172 16.4183 4 12 4C7.58172 4 4 7.58172 4 12C4 16.4183 7.58172 20 12 20C16.4183 20 20 16.4183 20 12Z" stroke="#777D87" stroke-width="2"/>
<path d="M14.2478 8.33877C14.6383 7.9483 15.2713 7.94829 15.6618 8.33877C16.0519 8.7293 16.0521 9.36244 15.6618 9.75284L13.4148 11.9989L15.6628 14.247C16.0528 14.6374 16.0529 15.2706 15.6628 15.661C15.2723 16.0514 14.6383 16.0513 14.2478 15.661L12.0007 13.414L9.7546 15.661C9.36423 16.0514 8.73013 16.0511 8.33956 15.661C7.94936 15.2705 7.94927 14.6374 8.33956 14.247L10.5866 11.9989L8.34053 9.75284C7.95006 9.36233 7.9501 8.72929 8.34053 8.33877C8.73106 7.94828 9.36409 7.94827 9.7546 8.33877L12.0007 10.5849L14.2478 8.33877Z" fill="#777D87"/>
</svg>
