<svg width="100" height="25" viewBox="0 0 100 25" fill="none" xmlns="http://www.w3.org/2000/svg">
<path d="M23.6919 21.5648V6.05139H25.8191V21.4915C25.8191 23.0318 23.8936 24.8656 22.5183 24.8656H3.33741C1.6357 24.8656 0 23.3069 0 21.5282V6.05139H2.16381V21.6382C2.16381 22.0049 2.65892 22.7384 3.26406 22.7384H22.5917C23.1968 22.7384 23.6919 22.0783 23.6919 21.5648Z" fill="white"/>
<path d="M13.9731 18.8508H11.846V2.16381H0V0H25.8191V2.16381H13.9731V18.8508Z" fill="#C80019"/>
<path d="M35.5188 0.587891C39.1188 0.587891 42.3188 3.78789 42.3188 7.68789C42.3188 11.5879 39.1188 14.7879 35.5188 14.7879C31.6188 14.7879 29.8188 11.3879 29.8188 11.3879L30.9188 10.6879C30.9188 10.6879 32.4188 13.4879 35.5188 13.4879C38.2188 13.4879 40.6188 11.0879 40.8788 8.28789H35.3188V6.98789H40.8788C40.7188 4.28789 38.3188 1.88789 35.5188 1.88789C32.8188 1.88789 31.3188 4.28789 31.3188 4.28789L30.2188 3.58789C30.2188 3.58789 32.0188 0.587891 35.5188 0.587891Z" fill="white"/>
<path d="M43.3251 14.3879L43.5251 13.1879C43.5251 13.1879 43.9251 13.3879 44.3251 13.3879C45.1251 13.3879 45.8451 12.6879 46.0251 10.9879L47.1251 0.987891H54.6251V14.3879H53.3251V2.28789H48.3251L47.3251 10.9879C47.0251 13.5879 45.9251 14.6879 44.3251 14.6879C43.8251 14.6879 43.3251 14.3879 43.3251 14.3879Z" fill="white"/>
<path d="M59.9259 13.0879H61.8259C64.1259 13.0879 65.5259 11.6879 65.5259 9.98789C65.5259 8.28789 64.1259 6.88789 61.8259 6.88789H59.9259V13.0879ZM66.9259 9.98789C66.9259 12.3879 64.9259 14.3879 61.8259 14.3879H58.6259V0.987891H59.9259V5.58789H61.8259C64.9259 5.58789 66.9259 7.58789 66.9259 9.98789Z" fill="white"/>
<path d="M77.4345 2.28789H73.6345V14.3879H72.3345V2.28789H68.5345V0.987891H77.4345V2.28789Z" fill="#C80019"/>
<path d="M80.0321 14.3879V0.987891H87.2321V2.28789H81.3321V6.88789H85.6321V8.18789H81.3321V13.0879H87.4321V14.3879H80.0321Z" fill="#C80019"/>
<path d="M91.7228 0.987891V14.3879H90.4228V0.987891H91.7228ZM98.5228 0.987891L94.0228 7.18789L99.0228 14.3879H97.4228L92.5228 7.18789L96.9228 0.987891H98.5228Z" fill="#C80019"/>
<path d="M83.846 22.3879V19.5879H85.666V20.0079H84.266V22.3879H83.846Z" fill="white"/>
<path d="M86.7885 20.7079V21.2679C86.7885 21.6879 87.2085 22.1079 87.7685 22.1079C88.2585 22.1079 88.7135 21.6529 88.7135 20.9879C88.7135 20.3229 88.2585 19.8679 87.7685 19.8679C87.2085 19.8679 86.7885 20.2879 86.7885 20.7079ZM86.7885 19.5879V20.0079H86.8235C86.8235 20.0079 87.1385 19.4479 87.8385 19.4479C88.5035 19.4479 89.1685 20.1129 89.1685 20.9879C89.1685 21.8629 88.5035 22.5279 87.8385 22.5279C87.1385 22.5279 86.8235 21.9679 86.8235 21.9679H86.7885V24.2779H86.3685V19.5879H86.7885Z" fill="white"/>
<path d="M91.8252 19.5879H92.2802L90.4602 24.2779H90.0052L90.7402 22.3879L89.5852 19.5879H90.0402L90.9502 21.7929H90.9852L91.8252 19.5879Z" fill="white"/>
<path d="M92.9788 19.5879H95.3588V22.3879H94.9389V20.0079H93.3988V22.3879H92.9788V19.5879Z" fill="white"/>
<path d="M96.4789 19.5879H98.8588V22.3879H98.4389V20.0079H96.8988V22.3879H96.4789V19.5879Z" fill="white"/>
</svg>
