<svg width="100" height="25" viewBox="0 0 100 25" fill="none" xmlns="http://www.w3.org/2000/svg">
<path d="M23.6919 21.5648V6.05139H25.8191V21.4915C25.8191 23.0318 23.8936 24.8656 22.5183 24.8656H3.33741C1.6357 24.8656 0 23.3069 0 21.5282V6.05139H2.16381V21.6382C2.16381 22.0049 2.65892 22.7384 3.26406 22.7384H22.5917C23.1968 22.7384 23.6919 22.0783 23.6919 21.5648Z" fill="white"/>
<path d="M13.9731 18.8508H11.846V2.16381H0V0H25.8191V2.16381H13.9731V18.8508Z" fill="white"/>
<path d="M35.5188 0.587769C39.1188 0.587769 42.3188 3.78777 42.3188 7.68777C42.3188 11.5878 39.1188 14.7878 35.5188 14.7878C31.6188 14.7878 29.8188 11.3878 29.8188 11.3878L30.9188 10.6878C30.9188 10.6878 32.4188 13.4878 35.5188 13.4878C38.2188 13.4878 40.6188 11.0878 40.8788 8.28777H35.3188V6.98777H40.8788C40.7188 4.28777 38.3188 1.88777 35.5188 1.88777C32.8188 1.88777 31.3188 4.28777 31.3188 4.28777L30.2188 3.58777C30.2188 3.58777 32.0188 0.587769 35.5188 0.587769Z" fill="white"/>
<path d="M43.3251 14.3878L43.5251 13.1878C43.5251 13.1878 43.9251 13.3878 44.3251 13.3878C45.1251 13.3878 45.8451 12.6878 46.0251 10.9878L47.1251 0.987769H54.6251V14.3878H53.3251V2.28777H48.3251L47.3251 10.9878C47.0251 13.5878 45.9251 14.6878 44.3251 14.6878C43.8251 14.6878 43.3251 14.3878 43.3251 14.3878Z" fill="white"/>
<path d="M59.9259 13.0878H61.8259C64.1259 13.0878 65.5259 11.6878 65.5259 9.98777C65.5259 8.28777 64.1259 6.88777 61.8259 6.88777H59.9259V13.0878ZM66.9259 9.98777C66.9259 12.3878 64.9259 14.3878 61.8259 14.3878H58.6259V0.987769H59.9259V5.58777H61.8259C64.9259 5.58777 66.9259 7.58777 66.9259 9.98777Z" fill="white"/>
<path d="M77.4345 2.28777H73.6345V14.3878H72.3345V2.28777H68.5345V0.987769H77.4345V2.28777Z" fill="white"/>
<path d="M80.0321 14.3878V0.987769H87.2321V2.28777H81.3321V6.88777H85.6321V8.18777H81.3321V13.0878H87.4321V14.3878H80.0321Z" fill="white"/>
<path d="M91.7228 0.987769V14.3878H90.4228V0.987769H91.7228ZM98.5228 0.987769L94.0228 7.18777L99.0228 14.3878H97.4228L92.5228 7.18777L96.9228 0.987769H98.5228Z" fill="white"/>
<path d="M83.846 22.3878V19.5878H85.666V20.0078H84.266V22.3878H83.846Z" fill="white"/>
<path d="M86.7885 20.7078V21.2678C86.7885 21.6878 87.2085 22.1078 87.7685 22.1078C88.2585 22.1078 88.7135 21.6528 88.7135 20.9878C88.7135 20.3228 88.2585 19.8678 87.7685 19.8678C87.2085 19.8678 86.7885 20.2878 86.7885 20.7078ZM86.7885 19.5878V20.0078H86.8235C86.8235 20.0078 87.1385 19.4478 87.8385 19.4478C88.5035 19.4478 89.1685 20.1128 89.1685 20.9878C89.1685 21.8628 88.5035 22.5278 87.8385 22.5278C87.1385 22.5278 86.8235 21.9678 86.8235 21.9678H86.7885V24.2778H86.3685V19.5878H86.7885Z" fill="white"/>
<path d="M91.8252 19.5878H92.2802L90.4602 24.2778H90.0052L90.7402 22.3878L89.5852 19.5878H90.0402L90.9502 21.7928H90.9852L91.8252 19.5878Z" fill="white"/>
<path d="M92.9788 19.5878H95.3588V22.3878H94.9389V20.0078H93.3988V22.3878H92.9788V19.5878Z" fill="white"/>
<path d="M96.4789 19.5878H98.8588V22.3878H98.4389V20.0078H96.8988V22.3878H96.4789V19.5878Z" fill="white"/>
</svg>
