<svg width="24" height="24" viewBox="0 0 24 24" fill="none" xmlns="http://www.w3.org/2000/svg">
<path d="M12 4C13.6569 4 15 5.34315 15 7V10H19C20.6569 10 22 11.3431 22 13V18C22 19.1046 21.1046 20 20 20H6C4.89543 20 4 19.1046 4 18V7C4 5.34315 5.34315 4 7 4H12ZM7 6C6.44772 6 6 6.44772 6 7V18H13V7C13 6.44772 12.5523 6 12 6H7ZM15 18H20V13C20 12.4477 19.5523 12 19 12H15V18ZM11 14C11.5523 14 12 14.4477 12 15C12 15.5523 11.5523 16 11 16H8C7.44772 16 7 15.5523 7 15C7 14.4477 7.44772 14 8 14H11ZM11 11C11.5523 11 12 11.4477 12 12C12 12.5523 11.5523 13 11 13H8C7.44772 13 7 12.5523 7 12C7 11.4477 7.44772 11 8 11H11ZM11 8C11.5523 8 12 8.44772 12 9C12 9.55228 11.5523 10 11 10H8C7.44772 10 7 9.55228 7 9C7 8.44772 7.44772 8 8 8H11Z" fill="#777D87"/>
</svg>
