<svg width="117" height="28" viewBox="0 0 117 28" fill="none" xmlns="http://www.w3.org/2000/svg">
<path d="M26.4448 24.0704V6.75439H28.8191V23.9885C28.8191 25.7078 26.6699 27.7546 25.1348 27.7546H3.72519C1.82575 27.7546 0 26.0149 0 24.0295V6.75439H2.41523V24.1523C2.41523 24.5616 2.96787 25.3803 3.64332 25.3803H25.2167C25.8921 25.3803 26.4448 24.6435 26.4448 24.0704Z" fill="#1B2026"/>
<path d="M15.5967 21.0412H13.2224V2.41523H0V0H28.8191V2.41523H15.5967V21.0412Z" fill="#1B2026"/>
<path d="M40.8588 3.35637C40.1922 3.35637 39.5855 3.43637 39.0388 3.59637C38.4922 3.74303 37.9988 3.91637 37.5588 4.11637L36.8188 2.61637C37.3655 2.3497 37.9922 2.14303 38.6988 1.99637C39.4055 1.8497 40.1322 1.77637 40.8788 1.77637C42.0255 1.77637 43.0188 1.95637 43.8588 2.31637C44.7122 2.66303 45.4188 3.15637 45.9788 3.79637C46.5388 4.43637 46.9522 5.1897 47.2188 6.05637C47.4988 6.9097 47.6388 7.8497 47.6388 8.87637C47.6388 10.4364 47.3855 11.783 46.8788 12.9164C46.3722 14.0497 45.6055 14.923 44.5788 15.5364C43.5655 16.1497 42.2855 16.4564 40.7388 16.4564C39.9122 16.4564 39.2122 16.4097 38.6388 16.3164C38.0655 16.223 37.4988 16.0764 36.9388 15.8764V14.3164C37.4988 14.463 38.0655 14.5964 38.6388 14.7164C39.2122 14.823 39.8188 14.8764 40.4588 14.8764C41.3255 14.8764 42.0788 14.763 42.7188 14.5364C43.3722 14.2964 43.9188 13.9564 44.3588 13.5164C44.7988 13.063 45.1322 12.5097 45.3588 11.8564C45.5855 11.1897 45.7122 10.4297 45.7388 9.57637H38.7988V7.99637H45.7188C45.6522 7.26303 45.4922 6.6097 45.2388 6.03637C44.9855 5.46303 44.6455 4.97637 44.2188 4.57637C43.8055 4.17637 43.3122 3.87637 42.7388 3.67637C42.1788 3.46303 41.5522 3.35637 40.8588 3.35637Z" fill="#1B2026"/>
<path d="M62.1045 16.2564H60.3045V3.55637H55.7845C55.6911 4.2897 55.5911 5.06303 55.4845 5.87637C55.3778 6.67637 55.2645 7.4697 55.1445 8.25637C55.0378 9.04303 54.9311 9.78303 54.8245 10.4764C54.7178 11.1697 54.6111 11.7764 54.5045 12.2964C54.3311 13.1897 54.1178 13.9497 53.8645 14.5764C53.6111 15.203 53.2711 15.6764 52.8445 15.9964C52.4311 16.3164 51.8845 16.4764 51.2045 16.4764C50.9778 16.4764 50.7445 16.4497 50.5045 16.3964C50.2778 16.3564 50.0778 16.303 49.9045 16.2364V14.7364C50.0511 14.803 50.2178 14.863 50.4045 14.9164C50.5911 14.9564 50.7911 14.9764 51.0045 14.9764C51.4045 14.9764 51.7178 14.8164 51.9445 14.4964C52.1845 14.163 52.3711 13.7564 52.5045 13.2764C52.6378 12.783 52.7511 12.2964 52.8445 11.8164C52.9245 11.4297 53.0178 10.9164 53.1245 10.2764C53.2311 9.62303 53.3445 8.86303 53.4645 7.99637C53.5978 7.1297 53.7311 6.1897 53.8645 5.17637C54.0111 4.1497 54.1511 3.08303 54.2845 1.97637H62.1045V16.2564Z" fill="#1B2026"/>
<path d="M67.3846 16.2564V1.97637H69.1846V8.01637H71.8646C73.198 8.01637 74.258 8.19637 75.0446 8.55637C75.8313 8.91637 76.398 9.40303 76.7446 10.0164C77.0913 10.6297 77.2646 11.3164 77.2646 12.0764C77.2646 12.9164 77.0713 13.6497 76.6846 14.2764C76.3113 14.903 75.7446 15.3897 74.9846 15.7364C74.2246 16.083 73.258 16.2564 72.0846 16.2564H67.3846ZM71.9046 14.7164C73.0646 14.7164 73.938 14.503 74.5246 14.0764C75.1113 13.6364 75.4046 12.9697 75.4046 12.0764C75.4046 11.463 75.258 10.9764 74.9646 10.6164C74.6846 10.243 74.2646 9.97637 73.7046 9.81637C73.158 9.65637 72.4713 9.57637 71.6446 9.57637H69.1846V14.7164H71.9046Z" fill="#1B2026"/>
<path d="M85.1406 16.2564H83.3406V3.55637H78.8806V1.97637H89.5806V3.55637H85.1406V16.2564Z" fill="#1B2026"/>
<path d="M101.114 16.2564H93.1338V1.97637H101.114V3.55637H94.9338V8.01637H100.754V9.57637H94.9338V14.6764H101.114V16.2564Z" fill="#1B2026"/>
<path d="M116.067 16.2564H113.907L107.447 9.01637V16.2564H105.647V1.97637H107.447V8.89637L113.747 1.97637H115.787L109.587 8.91637L116.067 16.2564Z" fill="#1B2026"/>
<path d="M91.0219 20.5463V21.0643H89.3489V24.2983H88.7329V20.5463H91.0219Z" fill="#1B2026"/>
<path d="M95.7862 20.4763C96.2482 20.4763 96.6192 20.6373 96.8992 20.9593C97.1839 21.2813 97.3262 21.7667 97.3262 22.4153C97.3262 22.84 97.2609 23.1993 97.1302 23.4933C97.0042 23.7827 96.8246 24.002 96.5912 24.1513C96.3626 24.296 96.0919 24.3683 95.7792 24.3683C95.5879 24.3683 95.4176 24.3427 95.2682 24.2913C95.1189 24.24 94.9906 24.1747 94.8832 24.0953C94.7806 24.0113 94.6919 23.9203 94.6172 23.8223H94.5752C94.5846 23.9017 94.5939 24.002 94.6032 24.1233C94.6126 24.2447 94.6172 24.3497 94.6172 24.4383V25.9783H94.0012V20.5463H94.5052L94.5892 21.0573H94.6172C94.6919 20.95 94.7806 20.852 94.8832 20.7633C94.9906 20.6747 95.1166 20.6047 95.2612 20.5533C95.4106 20.502 95.5856 20.4763 95.7862 20.4763ZM95.6742 20.9943C95.4222 20.9943 95.2192 21.0433 95.0652 21.1413C94.9112 21.2347 94.7992 21.377 94.7292 21.5683C94.6592 21.7597 94.6219 22.0023 94.6172 22.2963V22.4153C94.6172 22.7233 94.6499 22.9847 94.7152 23.1993C94.7806 23.414 94.8902 23.5773 95.0442 23.6893C95.2029 23.8013 95.4176 23.8573 95.6882 23.8573C95.9169 23.8573 96.1036 23.7943 96.2482 23.6683C96.3976 23.5423 96.5072 23.372 96.5772 23.1573C96.6519 22.938 96.6892 22.6883 96.6892 22.4083C96.6892 21.979 96.6052 21.636 96.4372 21.3793C96.2739 21.1227 96.0196 20.9943 95.6742 20.9943Z" fill="#1B2026"/>
<path d="M99.8915 20.5463H100.55L101.362 22.6813C101.408 22.8073 101.45 22.9287 101.488 23.0453C101.53 23.162 101.567 23.2763 101.6 23.3883C101.632 23.4957 101.658 23.6007 101.677 23.7033H101.705C101.733 23.5867 101.777 23.435 101.838 23.2483C101.898 23.057 101.961 22.8657 102.027 22.6743L102.79 20.5463H103.455L101.838 24.8163C101.749 25.0497 101.644 25.2527 101.523 25.4253C101.406 25.6027 101.261 25.738 101.089 25.8313C100.921 25.9293 100.715 25.9783 100.473 25.9783C100.361 25.9783 100.263 25.9713 100.179 25.9573C100.095 25.948 100.022 25.9363 99.9615 25.9223V25.4323C100.013 25.4417 100.074 25.451 100.144 25.4603C100.218 25.4697 100.295 25.4743 100.375 25.4743C100.519 25.4743 100.643 25.4463 100.746 25.3903C100.853 25.339 100.944 25.262 101.019 25.1593C101.093 25.0613 101.156 24.9447 101.208 24.8093L101.404 24.3123L99.8915 20.5463Z" fill="#1B2026"/>
<path d="M109.459 20.5463V24.2983H108.843V21.0713H106.904V24.2983H106.288V20.5463H109.459Z" fill="#1B2026"/>
<path d="M116.067 20.5463V24.2983H115.451V21.0713H113.512V24.2983H112.896V20.5463H116.067Z" fill="#1B2026"/>
</svg>
